<svg width="21" height="20" viewBox="0 0 21 20" fill="none" xmlns="http://www.w3.org/2000/svg">
<g opacity="0.64">
<path d="M16.75 2.50043H16.125V1.89301C16.125 1.55668 15.8664 1.26801 15.5301 1.25121C15.4456 1.24714 15.3611 1.26027 15.2818 1.2898C15.2026 1.31933 15.1301 1.36465 15.0688 1.42302C15.0076 1.48138 14.9588 1.55157 14.9255 1.62934C14.8922 1.70711 14.875 1.79083 14.875 1.87543V2.50043H6.125V1.89301C6.125 1.55668 5.86641 1.26801 5.53008 1.25121C5.44557 1.24714 5.36112 1.26027 5.28184 1.2898C5.20255 1.31933 5.13009 1.36465 5.06884 1.42302C5.00759 1.48138 4.95883 1.55157 4.92551 1.62934C4.89219 1.70711 4.87501 1.79083 4.875 1.87543V2.50043H4.25C3.58696 2.50043 2.95107 2.76382 2.48223 3.23266C2.01339 3.70151 1.75 4.33739 1.75 5.00043V16.2504C1.75 16.9135 2.01339 17.5494 2.48223 18.0182C2.95107 18.487 3.58696 18.7504 4.25 18.7504H16.75C17.413 18.7504 18.0489 18.487 18.5178 18.0182C18.9866 17.5494 19.25 16.9135 19.25 16.2504V5.00043C19.25 4.33739 18.9866 3.70151 18.5178 3.23266C18.0489 2.76382 17.413 2.50043 16.75 2.50043ZM5.8125 16.2504C5.62708 16.2504 5.44582 16.1954 5.29165 16.0924C5.13748 15.9894 5.01732 15.843 4.94636 15.6717C4.87541 15.5004 4.85684 15.3119 4.89301 15.13C4.92919 14.9482 5.01848 14.7811 5.14959 14.65C5.2807 14.5189 5.44775 14.4296 5.6296 14.3934C5.81146 14.3573 5.99996 14.3758 6.17127 14.4468C6.34257 14.5178 6.48899 14.6379 6.592 14.7921C6.69502 14.9463 6.75 15.1275 6.75 15.3129C6.75 15.5616 6.65123 15.8 6.47541 15.9758C6.2996 16.1517 6.06114 16.2504 5.8125 16.2504ZM5.8125 13.1254C5.62708 13.1254 5.44582 13.0704 5.29165 12.9674C5.13748 12.8644 5.01732 12.718 4.94636 12.5467C4.87541 12.3754 4.85684 12.1869 4.89301 12.005C4.92919 11.8232 5.01848 11.6561 5.14959 11.525C5.2807 11.3939 5.44775 11.3046 5.6296 11.2684C5.81146 11.2323 5.99996 11.2508 6.17127 11.3218C6.34257 11.3928 6.48899 11.5129 6.592 11.6671C6.69502 11.8213 6.75 12.0025 6.75 12.1879C6.75 12.4366 6.65123 12.675 6.47541 12.8508C6.2996 13.0267 6.06114 13.1254 5.8125 13.1254ZM8.9375 16.2504C8.75208 16.2504 8.57082 16.1954 8.41665 16.0924C8.26248 15.9894 8.14232 15.843 8.07136 15.6717C8.00041 15.5004 7.98184 15.3119 8.01801 15.13C8.05419 14.9482 8.14348 14.7811 8.27459 14.65C8.4057 14.5189 8.57275 14.4296 8.7546 14.3934C8.93646 14.3573 9.12496 14.3758 9.29627 14.4468C9.46757 14.5178 9.61399 14.6379 9.717 14.7921C9.82002 14.9463 9.875 15.1275 9.875 15.3129C9.875 15.5616 9.77623 15.8 9.60041 15.9758C9.4246 16.1517 9.18614 16.2504 8.9375 16.2504ZM8.9375 13.1254C8.75208 13.1254 8.57082 13.0704 8.41665 12.9674C8.26248 12.8644 8.14232 12.718 8.07136 12.5467C8.00041 12.3754 7.98184 12.1869 8.01801 12.005C8.05419 11.8232 8.14348 11.6561 8.27459 11.525C8.4057 11.3939 8.57275 11.3046 8.7546 11.2684C8.93646 11.2323 9.12496 11.2508 9.29627 11.3218C9.46757 11.3928 9.61399 11.5129 9.717 11.6671C9.82002 11.8213 9.875 12.0025 9.875 12.1879C9.875 12.4366 9.77623 12.675 9.60041 12.8508C9.4246 13.0267 9.18614 13.1254 8.9375 13.1254ZM12.0625 16.2504C11.8771 16.2504 11.6958 16.1954 11.5417 16.0924C11.3875 15.9894 11.2673 15.843 11.1964 15.6717C11.1254 15.5004 11.1068 15.3119 11.143 15.13C11.1792 14.9482 11.2685 14.7811 11.3996 14.65C11.5307 14.5189 11.6977 14.4296 11.8796 14.3934C12.0615 14.3573 12.25 14.3758 12.4213 14.4468C12.5926 14.5178 12.739 14.6379 12.842 14.7921C12.945 14.9463 13 15.1275 13 15.3129C13 15.5616 12.9012 15.8 12.7254 15.9758C12.5496 16.1517 12.3111 16.2504 12.0625 16.2504ZM12.0625 13.1254C11.8771 13.1254 11.6958 13.0704 11.5417 12.9674C11.3875 12.8644 11.2673 12.718 11.1964 12.5467C11.1254 12.3754 11.1068 12.1869 11.143 12.005C11.1792 11.8232 11.2685 11.6561 11.3996 11.525C11.5307 11.3939 11.6977 11.3046 11.8796 11.2684C12.0615 11.2323 12.25 11.2508 12.4213 11.3218C12.5926 11.3928 12.739 11.5129 12.842 11.6671C12.945 11.8213 13 12.0025 13 12.1879C13 12.4366 12.9012 12.675 12.7254 12.8508C12.5496 13.0267 12.3111 13.1254 12.0625 13.1254ZM12.0625 10.0004C11.8771 10.0004 11.6958 9.94545 11.5417 9.84243C11.3875 9.73942 11.2673 9.593 11.1964 9.4217C11.1254 9.25039 11.1068 9.06189 11.143 8.88003C11.1792 8.69818 11.2685 8.53113 11.3996 8.40002C11.5307 8.26891 11.6977 8.17962 11.8796 8.14345C12.0615 8.10727 12.25 8.12584 12.4213 8.19679C12.5926 8.26775 12.739 8.38791 12.842 8.54208C12.945 8.69626 13 8.87751 13 9.06293C13 9.31157 12.9012 9.55003 12.7254 9.72584C12.5496 9.90166 12.3111 10.0004 12.0625 10.0004ZM15.1875 13.1254C15.0021 13.1254 14.8208 13.0704 14.6667 12.9674C14.5125 12.8644 14.3923 12.718 14.3214 12.5467C14.2504 12.3754 14.2318 12.1869 14.268 12.005C14.3042 11.8232 14.3935 11.6561 14.5246 11.525C14.6557 11.3939 14.8227 11.3046 15.0046 11.2684C15.1865 11.2323 15.375 11.2508 15.5463 11.3218C15.7176 11.3928 15.864 11.5129 15.967 11.6671C16.07 11.8213 16.125 12.0025 16.125 12.1879C16.125 12.4366 16.0262 12.675 15.8504 12.8508C15.6746 13.0267 15.4361 13.1254 15.1875 13.1254ZM15.1875 10.0004C15.0021 10.0004 14.8208 9.94545 14.6667 9.84243C14.5125 9.73942 14.3923 9.593 14.3214 9.4217C14.2504 9.25039 14.2318 9.06189 14.268 8.88003C14.3042 8.69818 14.3935 8.53113 14.5246 8.40002C14.6557 8.26891 14.8227 8.17962 15.0046 8.14345C15.1865 8.10727 15.375 8.12584 15.5463 8.19679C15.7176 8.26775 15.864 8.38791 15.967 8.54208C16.07 8.69626 16.125 8.87751 16.125 9.06293C16.125 9.31157 16.0262 9.55003 15.8504 9.72584C15.6746 9.90166 15.4361 10.0004 15.1875 10.0004ZM18 5.31293V5.93793C18 6.02081 17.9671 6.1003 17.9085 6.1589C17.8499 6.21751 17.7704 6.25043 17.6875 6.25043H3.3125C3.22962 6.25043 3.15013 6.21751 3.09153 6.1589C3.03292 6.1003 3 6.02081 3 5.93793V5.00043C3.00093 4.6692 3.13292 4.35179 3.36714 4.11757C3.60136 3.88335 3.91876 3.75136 4.25 3.75043H16.75C17.0812 3.75136 17.3986 3.88335 17.6329 4.11757C17.8671 4.35179 17.9991 4.6692 18 5.00043V5.31293Z" fill="#000"/>
</g>
</svg>
