<svg width="38" height="39" viewBox="0 0 11 12" fill="none" xmlns="http://www.w3.org/2000/svg">
<path d="M0.246338 6.02917C0.246338 8.86166 2.54248 11.158 5.37497 11.158C8.20761 11.158 10.5038 8.86166 10.5038 6.02917C10.5038 3.19669 8.20761 0.900391 5.37497 0.900391C2.54248 0.900391 0.246338 3.19669 0.246338 6.02917ZM3.4223 5.19559C3.4223 4.47095 3.94812 3.86166 4.99991 3.71426V3.01526H5.90399V3.70145C6.37854 3.74631 6.84027 3.86807 7.20572 4.0733L6.7504 5.1698C6.30804 4.94534 5.89117 4.8364 5.49994 4.8364C5.05759 4.8364 4.91644 4.96457 4.91644 5.11853C4.91644 5.65717 7.39813 5.20825 7.39813 6.86276C7.39813 7.55536 6.89795 8.15808 5.90399 8.33127V9.04309H4.99991V8.36331C4.35858 8.32486 3.73663 8.15167 3.35181 7.9144L3.83917 6.81149C4.26245 7.06158 4.82672 7.22195 5.3205 7.22195C5.75003 7.22195 5.90399 7.13208 5.90399 6.97827C5.90399 6.41385 3.4223 6.86917 3.4223 5.19559Z" fill="#FF9500"/>
</svg>
