<svg width="28" height="28" viewBox="0 0 28 28" fill="none" xmlns="http://www.w3.org/2000/svg">
<g clip-path="url(#clip0)">
<path d="M16.0736 13.8004C15.5916 12.3703 14.0414 11.6018 12.6114 12.0838C11.271 12.5356 10.497 13.9356 10.8271 15.311C11.8108 18.7311 15.409 21.8003 18.7045 24.4082C18.9411 24.5956 19.2849 24.5558 19.4723 24.3191C19.6598 24.0825 19.6199 23.7387 19.3833 23.5512C16.22 21.0482 12.7716 18.1178 11.8775 15.0093C11.6272 14.1385 12.1303 13.2298 13.0011 12.9795C13.8719 12.7293 14.7806 13.2324 15.0309 14.1032C15.6276 16.1799 18.5952 18.7463 21.4185 20.9805C21.6551 21.1679 21.9989 21.128 22.1863 20.8914C22.3738 20.6547 22.3339 20.311 22.0972 20.1235C20.6064 18.9464 16.6584 15.8225 16.0736 13.8004Z" fill="#000"/>
<path d="M20.2161 12.3911C19.028 8.74825 15.1785 6.69048 11.4894 7.72605C7.71786 8.80825 5.53769 12.7431 6.61993 16.5147C6.6207 16.5173 6.62147 16.52 6.62224 16.5227C7.51963 19.64 5.59589 20.5046 4.98271 20.6948C4.69476 20.7853 4.53475 21.0921 4.62529 21.3801C4.71582 21.668 5.02267 21.828 5.31061 21.7375C6.98186 21.2151 8.605 19.4575 7.67262 16.2199C6.75345 13.0295 8.59465 9.69816 11.785 8.77899C11.7867 8.77853 11.7884 8.77802 11.79 8.77756C14.9445 7.89088 18.2311 9.67864 19.2007 12.8086C19.2136 12.8512 19.232 12.892 19.2554 12.9299C19.3122 13.0239 19.4291 13.2218 22.9421 16.0724C23.1763 16.2628 23.5206 16.2273 23.711 15.9931C23.9015 15.7589 23.866 15.4146 23.6318 15.2242C22.3551 14.188 20.4894 12.6479 20.2161 12.3911Z" fill="#000"/>
<path d="M18.1766 13.1952C17.4218 10.5886 14.7013 9.08296 12.0917 9.82757C9.52941 10.6186 8.0422 13.2849 8.71539 15.8807C9.81936 20.9086 8.99411 22.0694 6.72935 22.7777C6.44141 22.8682 6.2814 23.1751 6.37193 23.463C6.46246 23.7509 6.76931 23.911 7.05725 23.8204C10.2216 22.8367 10.9091 20.7687 9.78979 15.6457C9.24603 13.6143 10.3957 11.5144 12.3999 10.8779C14.4308 10.3014 16.546 11.4735 17.1338 13.5012C17.3524 14.2466 17.9328 15.2697 22.4088 18.8122C22.6454 18.9996 22.9892 18.9598 23.1766 18.7231C23.3641 18.4865 23.3242 18.1427 23.0875 17.9552C19.0248 14.7418 18.3296 13.7242 18.1766 13.1952Z" fill="#000"/>
<path d="M19.6806 20.8033C17.8312 19.3998 14.7358 17.052 13.974 14.4048C13.8856 14.1161 13.58 13.9538 13.2914 14.0422C13.0099 14.1283 12.8472 14.4221 12.9235 14.7064C13.7849 17.7035 17.0617 20.189 19.0193 21.6744C19.4172 21.9609 19.8002 22.2673 20.167 22.5926C20.3841 22.8023 20.7301 22.7963 20.9398 22.5792C21.1444 22.3674 21.1444 22.0316 20.9398 21.8198C20.5395 21.4576 20.1191 21.1182 19.6806 20.8033Z" fill="#000"/>
<path d="M16.7228 24.604C16.1704 23.5793 15.1529 22.8882 13.9968 22.7524C12.1386 22.7524 11.8512 25.9113 11.8107 26.5441C11.792 26.8453 12.021 27.1047 12.3222 27.1235H12.3572C12.6463 27.124 12.8858 26.8993 12.9038 26.6108C12.9726 25.485 13.4033 23.8455 13.9968 23.8455C14.8067 23.8455 15.3816 24.6259 15.8429 25.2522C15.9953 25.4695 16.1621 25.6761 16.3424 25.8709C16.5595 26.0806 16.9055 26.0746 17.1152 25.8575C17.3198 25.6457 17.3198 25.3099 17.1152 25.0981C16.9738 24.9421 16.8427 24.7771 16.7228 24.604Z" fill="#000"/>
<path d="M11.7855 19.8543C11.6828 19.5705 11.3695 19.4237 11.0857 19.5264C10.8187 19.6231 10.6702 19.908 10.7439 20.1822C11.2118 21.6436 10.2925 24.5116 8.90985 24.9609C8.6218 25.051 8.46139 25.3576 8.55151 25.6457C8.64168 25.9337 8.94828 26.0941 9.23632 26.004C9.24011 26.0028 9.24385 26.0016 9.24759 26.0003C11.3505 25.3227 12.3648 21.6698 11.7855 19.8543Z" fill="#000"/>
<path d="M23.4559 12.3955C22.7728 12.1769 22.2361 11.3025 21.6141 10.3046C20.2982 8.17754 18.4935 5.26465 13.4503 5.26465C8.32173 5.27069 4.16566 9.42676 4.15967 14.5554C4.15967 14.8572 4.40437 15.1019 4.7062 15.1019C5.00802 15.1019 5.25272 14.8572 5.25272 14.5554C5.25754 10.0299 8.92492 6.36252 13.4504 6.3577C17.8848 6.3577 19.438 8.86511 20.6862 10.8806C21.4207 12.0666 22.0547 13.0907 23.1193 13.4361C23.4053 13.5325 23.7153 13.3787 23.8117 13.0927C23.908 12.8067 23.7543 12.4967 23.4683 12.4003C23.4646 12.399 23.4608 12.3978 23.457 12.3966L23.4559 12.3955Z" fill="#000"/>
<path d="M5.2526 18.9274C5.55443 18.9274 5.79913 18.6827 5.79908 18.3808C5.79908 18.2958 5.77925 18.212 5.74118 18.136C5.50796 17.6988 5.34313 17.2285 5.2526 16.7414C5.2526 16.4395 5.0079 16.1948 4.70607 16.1948C4.40425 16.1948 4.15955 16.4395 4.15955 16.7414C4.24726 17.4004 4.452 18.0386 4.76397 18.6257C4.85671 18.8106 5.04582 18.9274 5.2526 18.9274Z" fill="#000"/>
<path d="M4.96838 7.37091C5.2261 7.528 5.56241 7.44648 5.71949 7.18877C5.7198 7.18826 5.72011 7.1878 5.72036 7.18728C6.19475 6.40466 8.5316 4.17162 12.9037 4.17162C17.1053 4.17162 20.0947 6.29973 20.6336 7.18728C20.7902 7.44536 21.1264 7.52754 21.3845 7.37091C21.6425 7.21428 21.7247 6.87808 21.5681 6.62C20.8183 5.38487 17.5075 3.07861 12.9037 3.07861C8.00808 3.07861 5.38375 5.63521 4.78475 6.62108C4.62874 6.8789 4.71092 7.21434 4.96838 7.37091Z" fill="#000"/>
<path d="M8.2038 3.03055C8.45409 2.92127 8.66615 2.81193 8.86725 2.70265C9.68922 2.28841 10.2805 1.98561 12.9038 1.98561C14.675 1.888 16.4467 2.17164 18.0989 2.81741C18.3077 2.89503 18.5175 2.9726 18.7372 3.04802C18.7945 3.0679 18.8547 3.07825 18.9154 3.07861C19.2172 3.07917 19.4623 2.83494 19.4629 2.53311C19.4633 2.29917 19.3148 2.09095 19.0935 2.01512C18.8815 1.9419 18.6804 1.86756 18.4793 1.7965C16.7056 1.10477 14.8053 0.796688 12.9038 0.892601C10.0139 0.892601 9.2903 1.26421 8.37216 1.73532C8.18746 1.83041 7.99071 1.93099 7.76118 2.03372C7.48071 2.1452 7.34371 2.46297 7.45515 2.74343C7.56664 3.02389 7.8844 3.16089 8.16486 3.04946C8.17921 3.04377 8.1933 3.03747 8.20708 3.03055H8.2038Z" fill="#000"/>
<path d="M22.7662 10.3491C22.8689 10.6329 23.1823 10.7797 23.4661 10.677C23.733 10.5803 23.8816 10.2954 23.8078 10.0212C23.4977 9.2183 23.1131 8.44613 22.6591 7.71495C22.5009 7.4578 22.1642 7.37751 21.9071 7.53568C21.6499 7.69384 21.5697 8.03051 21.7278 8.28766C22.1347 8.94255 22.4822 9.63244 22.7662 10.3491Z" fill="#000"/>
<path d="M19.0401 24.526C18.9171 24.5259 18.7977 24.4842 18.7013 24.4079C15.4058 21.7988 11.8109 18.7308 10.8271 15.3107C10.4749 13.8432 11.379 12.3681 12.8465 12.0159C14.2219 11.6858 15.6218 12.4598 16.0736 13.8001C16.6551 15.8211 20.6031 18.9461 22.0852 20.1222C22.3276 20.3021 22.3783 20.6444 22.1984 20.8867C22.0185 21.129 21.6762 21.1798 21.4339 20.9999C21.4249 20.9932 21.4161 20.9863 21.4076 20.9791C18.5843 18.745 15.6145 16.1796 15.0189 14.1018C14.7686 13.2313 13.8601 12.7285 12.9897 12.9787C12.1192 13.229 11.6164 14.1375 11.8666 15.0079C12.7607 18.1165 16.2092 21.0469 19.3713 23.5499C19.608 23.7372 19.6479 24.081 19.4605 24.3176C19.3567 24.4487 19.1986 24.525 19.0314 24.5248L19.0401 24.526Z" fill="#24253D"/>
<path d="M5.14328 21.7591C4.84145 21.7586 4.59722 21.5135 4.59778 21.2116C4.59819 20.9733 4.75307 20.7627 4.98046 20.6912C5.59144 20.5 7.51517 19.6354 6.61999 16.5192C5.53534 12.7483 7.71294 8.81211 11.4838 7.72745C11.4857 7.72694 11.4876 7.72638 11.4894 7.72586C15.1789 6.68958 19.029 8.7475 20.2172 12.3909C20.4894 12.6467 22.3552 14.1878 23.6318 15.224C23.8602 15.4213 23.8855 15.7664 23.6882 15.9948C23.4993 16.2135 23.1729 16.2474 22.9432 16.0722C19.4291 13.2205 19.3122 13.0227 19.2553 12.9287C19.2327 12.8909 19.2147 12.8505 19.2018 12.8084C18.2322 9.67788 14.9448 7.88997 11.79 8.77737C8.59896 9.69423 6.7554 13.0243 7.67226 16.2153C7.67236 16.2157 7.67247 16.2161 7.67257 16.2164C8.60382 19.4529 6.98176 21.2115 5.30944 21.734C5.25569 21.751 5.19964 21.7595 5.14328 21.7591Z" fill="#24253D"/>
<path d="M6.89218 23.8463C6.59036 23.8457 6.34612 23.6006 6.34668 23.2988C6.34709 23.0604 6.50198 22.8499 6.72936 22.7784C8.99412 22.0701 9.81824 20.9071 8.71427 15.8814C8.04165 13.2857 9.52866 10.6198 12.0906 9.82828C14.7003 9.08557 17.4197 10.5904 18.1766 13.1959C18.3285 13.7238 19.0226 14.7414 23.0788 17.9527C23.3212 18.1326 23.3718 18.4749 23.192 18.7173C23.0121 18.9597 22.6698 19.0103 22.4274 18.8304C22.4185 18.8238 22.4096 18.8168 22.4011 18.8096C17.9197 15.266 17.3393 14.2419 17.1261 13.4986C16.5404 11.4688 14.4227 10.2955 12.3912 10.8754C10.3846 11.5123 9.23492 13.6158 9.78212 15.6486C10.9068 20.7727 10.2193 22.8353 7.04958 23.8233C6.99855 23.8388 6.94552 23.8465 6.89218 23.8463Z" fill="#24253D"/>
<path d="M20.555 22.7525C20.4099 22.7527 20.2707 22.6953 20.1681 22.5929C19.8012 22.2674 19.4181 21.9606 19.0204 21.6737C17.0628 20.1882 13.7859 17.7027 12.9246 14.7057C12.8363 14.417 12.9986 14.1115 13.2872 14.0231C13.5758 13.9348 13.8814 14.0971 13.9697 14.3857C13.9716 14.3917 13.9733 14.3978 13.975 14.4039C14.7401 17.0512 17.8312 19.399 19.6805 20.8025C20.1193 21.1179 20.5401 21.4576 20.9408 21.82C21.1539 22.0338 21.1534 22.3798 20.9396 22.5929C20.8374 22.6948 20.6992 22.7522 20.555 22.7525Z" fill="#24253D"/>
<path d="M12.3573 27.1254H12.3223C12.0211 27.1067 11.7921 26.8473 11.8108 26.5461C11.8501 25.9132 12.1387 22.7544 13.9968 22.7544C15.1554 22.8891 16.1754 23.5806 16.7293 24.6071C16.8486 24.7804 16.9793 24.9454 17.1206 25.1011C17.3303 25.3182 17.3243 25.6642 17.1072 25.8739C16.8954 26.0785 16.5597 26.0785 16.3478 25.8739C16.1672 25.6799 16.0004 25.4735 15.8484 25.2564C15.3827 24.6268 14.8078 23.8464 13.9968 23.8464C13.4043 23.8464 12.9726 25.4859 12.9038 26.6128C12.8859 26.9013 12.6464 27.126 12.3573 27.1254Z" fill="#24253D"/>
<path d="M9.07825 26.0316C8.77643 26.0321 8.53127 25.7879 8.5307 25.4861C8.53024 25.2483 8.68359 25.0376 8.90995 24.9648C10.2915 24.5156 11.2053 21.6475 10.744 20.1861C10.636 19.9043 10.7769 19.5883 11.0587 19.4802C11.3405 19.3722 11.6565 19.5131 11.7646 19.7948C11.7725 19.8155 11.7792 19.8367 11.7846 19.8582C12.365 21.6738 11.3474 25.3233 9.24656 26.0097C9.19195 26.0257 9.13518 26.0331 9.07825 26.0316Z" fill="#24253D"/>
<path d="M4.70626 15.1019C4.40443 15.1019 4.15973 14.8572 4.15973 14.5553C4.16577 9.42671 8.32179 5.27064 13.4504 5.26465C18.4936 5.26465 20.2982 8.17754 21.6153 10.3046C22.2372 11.3069 22.7739 12.1736 23.457 12.3955C23.7451 12.4857 23.9055 12.7923 23.8154 13.0804C23.7253 13.3684 23.4186 13.5288 23.1306 13.4387C23.1268 13.4375 23.123 13.4363 23.1193 13.435C22.0547 13.0896 21.4207 12.0654 20.6862 10.8795C19.438 8.86512 17.8848 6.35771 13.4504 6.35771C8.92493 6.36252 5.25755 10.0299 5.25273 14.5554C5.25273 14.8572 5.00808 15.1019 4.70626 15.1019Z" fill="#24253D"/>
<path d="M5.25273 18.9279C5.04554 18.9283 4.85591 18.8115 4.76308 18.6262C4.45121 18.0391 4.24688 17.4009 4.15973 16.7418C4.15973 16.44 4.40443 16.1953 4.70626 16.1953C5.00808 16.1953 5.25278 16.44 5.25278 16.7418C5.34357 17.2289 5.50834 17.6993 5.74136 18.1365C5.87657 18.4064 5.76744 18.7348 5.49759 18.87C5.42155 18.9081 5.33773 18.9279 5.25273 18.9279Z" fill="#24253D"/>
<path d="M21.1015 7.45068C20.9102 7.45079 20.7327 7.35088 20.6336 7.18728C20.0959 6.29973 17.1054 4.17162 12.9038 4.17162C8.53174 4.17162 6.19484 6.40466 5.71938 7.18728C5.57213 7.45074 5.23915 7.54496 4.9757 7.39766C4.71224 7.25041 4.61802 6.91743 4.76532 6.65397C4.77178 6.64239 4.77869 6.63107 4.78597 6.62C5.38384 5.63521 8.00822 3.07861 12.9039 3.07861C17.5077 3.07861 20.8185 5.38487 21.5682 6.62108C21.7246 6.87926 21.642 7.21531 21.3838 7.37163C21.2986 7.42322 21.201 7.45058 21.1015 7.45068Z" fill="#24253D"/>
<path d="M18.9156 3.07855C18.855 3.07865 18.7948 3.06871 18.7374 3.04903C18.5188 2.97362 18.3068 2.89492 18.098 2.81842C16.4461 2.17255 14.675 1.8885 12.904 1.98554C10.2807 1.98554 9.6894 2.28829 8.87291 2.70694C8.67181 2.81079 8.45867 2.919 8.20946 3.03484C7.933 3.15709 7.60975 3.03207 7.4875 2.75556C7.36526 2.47909 7.49027 2.15585 7.76679 2.0336C7.9974 1.92975 8.19307 1.82922 8.3789 1.73413C9.29048 1.26415 10.0152 0.892485 12.904 0.892485C14.8049 0.795547 16.7048 1.1025 18.4784 1.79315C18.6795 1.86749 18.8807 1.94291 19.0927 2.01177C19.3801 2.104 19.5383 2.41177 19.4461 2.69915C19.3723 2.92878 19.1567 3.083 18.9156 3.07855Z" fill="#24253D"/>
<path d="M23.2875 10.7299C23.0498 10.7298 22.8395 10.576 22.7672 10.3496C22.4832 9.63146 22.1358 8.94009 21.7288 8.28376C21.5706 8.02661 21.6509 7.68995 21.9081 7.53178C22.1652 7.37362 22.5019 7.45385 22.6601 7.71106C23.1137 8.44234 23.4979 9.21446 23.8077 10.0173C23.8995 10.3048 23.7408 10.6124 23.4532 10.7041C23.3997 10.7212 23.3437 10.7299 23.2875 10.7299Z" fill="#24253D"/>
</g>
<defs>
<clipPath id="clip0">
<rect width="26.25" height="26.25" fill="white" transform="translate(0.875 0.875)"/>
</clipPath>
</defs>
</svg>
