<svg width="21" height="20" viewBox="0 0 21 20" fill="none" xmlns="http://www.w3.org/2000/svg">
<g clip-path="url(#clip0)">
<path d="M10.023 0.643555L0.643738 9.99221L10.023 19.3562L19.4177 10.0075L10.023 0.643555Z" fill="white"/>
<path d="M8.45984 3.72461V11.5407H10.0997H11.6016V3.72461H10.0997" fill="#ED1D24"/>
<path d="M6.72803 5.27148H8.29125V10.0071H6.72803V5.27148ZM12.5978 10.0071H11.7548V5.27148H12.5978C13.456 5.27148 14.115 6.32896 14.115 7.63164C14.1303 8.91899 13.456 10.0071 12.5978 10.0071Z" fill="#21409A"/>
<path d="M10.023 19.3563L0.628352 10.0077L10.023 0.643678L19.4176 10.0077L10.023 19.3563ZM0 9.99234L0.0766283 10.069L9.65517 19.6169L10.0383 19.9847L10.4215 19.6169L20.0766 9.99234L10.023 0" fill="#ED1D24"/>
<path d="M10.0231 14.5133L5.502 9.99219H1.05756L8.87365 17.793L8.9656 17.8849L10.0231 18.9424L18.9886 9.99219H14.5595" fill="#ED1D24"/>
</g>
<defs>
<clipPath id="clip0">
<rect width="20.0613" height="20" fill="white"/>
</clipPath>
</defs>
</svg>
