<?xml version="1.0" encoding="UTF-8"?>
<svg xmlns="http://www.w3.org/2000/svg" xmlns:xlink="http://www.w3.org/1999/xlink" width="25pt" height="25pt" viewBox="0 0 25 25" version="1.1">
<g id="surface1">
<path style=" stroke:none;fill-rule:nonzero;fill:rgb(0%,0%,0%);fill-opacity:1;" d="M 12.574219 24.941406 C 10.773438 24.941406 9.21875 23.304688 8.726562 20.925781 L 0.515625 20.925781 C 0.308594 20.925781 0.121094 20.804688 0.0429688 20.613281 C -0.0390625 20.421875 0 20.203125 0.144531 20.054688 C 0.671875 19.5 1.175781 19.070312 1.621094 18.691406 C 2.714844 17.757812 3.378906 17.195312 3.378906 15.742188 L 3.378906 10.929688 C 3.398438 6.792969 6.15625 3.109375 9.980469 2.035156 C 10.164062 1.195312 10.835938 0.0585938 12.5 0.0585938 C 14.144531 0.0585938 14.824219 1.230469 15.015625 2.089844 C 18.863281 3.167969 21.628906 6.828125 21.648438 10.929688 L 21.648438 15.898438 C 21.648438 17.308594 22.234375 17.785156 23.292969 18.652344 C 23.761719 19.03125 24.289062 19.464844 24.855469 20.054688 C 25 20.203125 25.039062 20.421875 24.957031 20.613281 C 24.878906 20.804688 24.691406 20.925781 24.484375 20.925781 L 16.421875 20.925781 C 15.929688 23.304688 14.375 24.941406 12.574219 24.941406 Z M 9.832031 21.113281 C 10.292969 22.765625 11.386719 23.910156 12.574219 23.910156 C 13.761719 23.910156 14.855469 22.765625 15.316406 21.113281 Z M 1.804688 19.894531 L 23.183594 19.894531 C 22.996094 19.738281 22.816406 19.589844 22.644531 19.449219 C 21.511719 18.527344 20.621094 17.796875 20.621094 15.898438 L 20.621094 10.929688 C 20.601562 7.183594 18.003906 3.847656 14.441406 3.007812 C 14.21875 2.953125 14.0625 2.765625 14.042969 2.539062 C 14.035156 2.394531 13.890625 1.085938 12.5 1.085938 C 11.070312 1.085938 10.960938 2.332031 10.957031 2.476562 C 10.945312 2.707031 10.78125 2.898438 10.558594 2.949219 C 7.015625 3.789062 4.429688 7.144531 4.410156 10.933594 L 4.410156 15.742188 C 4.410156 17.671875 3.429688 18.507812 2.292969 19.476562 C 2.136719 19.609375 1.972656 19.746094 1.804688 19.894531 Z M 1.804688 19.894531 "/>
<path style=" stroke:none;fill-rule:nonzero;fill:rgb(0%,0%,0%);fill-opacity:1;" d="M 15.246094 3.214844 C 15.199219 3.214844 15.148438 3.207031 15.097656 3.191406 C 12.363281 2.359375 10.109375 3.058594 10.085938 3.066406 C 9.8125 3.152344 9.523438 3 9.4375 2.730469 C 9.351562 2.460938 9.5 2.171875 9.769531 2.085938 C 9.875 2.050781 12.339844 1.277344 15.398438 2.207031 C 15.667969 2.289062 15.820312 2.578125 15.738281 2.851562 C 15.671875 3.070312 15.46875 3.214844 15.246094 3.214844 Z M 15.246094 3.214844 "/>
</g>
</svg>
