<svg width="41" height="40" viewBox="0 0 41 40" fill="none" xmlns="http://www.w3.org/2000/svg">
<path d="M13.7358 37.5C15.1166 37.5 16.2358 36.3807 16.2358 35C16.2358 33.6193 15.1166 32.5 13.7358 32.5C12.3551 32.5 11.2358 33.6193 11.2358 35C11.2358 36.3807 12.3551 37.5 13.7358 37.5Z" fill="currentColor"/>
<path d="M31.2358 37.5C32.6166 37.5 33.7358 36.3807 33.7358 35C33.7358 33.6193 32.6166 32.5 31.2358 32.5C29.8551 32.5 28.7358 33.6193 28.7358 35C28.7358 36.3807 29.8551 37.5 31.2358 37.5Z" fill="currentColor"/>
<path fill-rule="evenodd" clip-rule="evenodd" d="M22.4858 16.875C25.5924 16.875 28.1108 14.3566 28.1108 11.25C28.1108 8.1434 25.5924 5.625 22.4858 5.625C19.3792 5.625 16.8608 8.1434 16.8608 11.25C16.8608 14.3566 19.3792 16.875 22.4858 16.875ZM22.4858 18.75C26.6279 18.75 29.9858 15.3921 29.9858 11.25C29.9858 7.10786 26.6279 3.75 22.4858 3.75C18.3437 3.75 14.9858 7.10786 14.9858 11.25C14.9858 15.3921 18.3437 18.75 22.4858 18.75Z" fill="currentColor"/>
<path fill-rule="evenodd" clip-rule="evenodd" d="M35.0257 11.4295C35.2765 11.5481 35.4977 11.7211 35.6733 11.9359C35.8497 12.1504 35.9762 12.4013 36.0437 12.6705C36.1113 12.9398 36.1182 13.2207 36.064 13.493L33.814 24.743C33.7279 25.1678 33.4977 25.5499 33.1622 25.8245C32.8268 26.0991 32.4068 26.2494 31.9733 26.25H13.0937L13.5343 28.75H32.4858C32.8174 28.75 33.1353 28.8817 33.3697 29.1161C33.6041 29.3505 33.7358 29.6685 33.7358 30C33.7358 30.3315 33.6041 30.6495 33.3697 30.8839C33.1353 31.1183 32.8174 31.25 32.4858 31.25H12.4858C12.1919 31.2501 11.9074 31.1466 11.6822 30.9577C11.4571 30.7688 11.3057 30.5066 11.2546 30.2172L7.6874 10H3.73584C3.40432 10 3.08638 9.8683 2.85196 9.63388C2.61754 9.39946 2.48584 9.08152 2.48584 8.75C2.48584 8.41848 2.61754 8.10054 2.85196 7.86612C3.08638 7.6317 3.40432 7.5 3.73584 7.5H8.73584C9.02974 7.49994 9.31427 7.60344 9.53944 7.79232C9.76461 7.9812 9.91602 8.24338 9.96709 8.53281L10.446 11.25H16.8608C16.8608 14.3566 19.3792 16.875 22.4858 16.875C25.5924 16.875 28.1108 14.3566 28.1108 11.25H34.2233C34.5008 11.2495 34.7749 11.3108 35.0257 11.4295Z" fill="currentColor"/>
<path d="M22.4858 7.5V15M22.4858 15L24.9858 12.5M22.4858 15L19.9858 12.5" stroke="currentColor" stroke-width="1.875" stroke-linecap="round" stroke-linejoin="round"/>
</svg>
