<svg width="16" height="16" viewBox="0 0 16 16" fill="none" xmlns="http://www.w3.org/2000/svg">
    <path
        d="M7.33665 3.47245V10.9191L4.08332 7.66579C3.82332 7.40579 3.39665 7.40579 3.13665 7.66579C2.87665 7.92579 2.87665 8.34579 3.13665 8.60579L7.52998 12.9991C7.78998 13.2591 8.20998 13.2591 8.46998 12.9991L12.8633 8.60579C13.1233 8.34579 13.1233 7.92579 12.8633 7.66579C12.7388 7.54095 12.5697 7.4708 12.3933 7.4708C12.217 7.4708 12.0479 7.54095 11.9233 7.66579L8.66998 10.9191V3.47245C8.66998 3.10579 8.36998 2.80579 8.00332 2.80579C7.63665 2.80579 7.33665 3.10579 7.33665 3.47245Z"
        fill="#EF0210"
    />
</svg>