<svg width="20" height="21" viewBox="0 0 20 21" fill="none" xmlns="http://www.w3.org/2000/svg">
<path d="M16.5069 3.11955C16.5141 2.46682 16.2606 1.8382 15.8027 1.37306C15.337 0.912499 14.7111 0.65003 14.0562 0.640648C13.4126 0.637844 12.7944 0.891201 12.3379 1.34486L15.8027 4.83783C16.2674 4.38881 16.5228 3.76558 16.5069 3.11955Z" fill="#24253D"/>
<path d="M15.0141 5.62685L11.5493 2.16211L3.52121 10.1902L6.98596 13.655L15.0141 5.62685Z" fill="#24253D"/>
<path d="M3.07049 11.3164L2.28174 14.8939L5.8592 14.1051L3.07049 11.3164Z" fill="#24253D"/>
<path d="M19.4366 19.2324H0.563381C0.252225 19.2324 0 19.4846 0 19.7958C0 20.107 0.252225 20.3592 0.563381 20.3592H19.4366C19.7478 20.3592 20 20.107 20 19.7958C20 19.4846 19.7478 19.2324 19.4366 19.2324Z" fill="#24253D"/>
</svg>
