<svg width="17" height="17" viewBox="0 0 17 17" fill="none" xmlns="http://www.w3.org/2000/svg">
<path d="M15.0484 9.63952C17.1759 7.70841 17.3357 4.40641 15.4046 2.27887C13.4735 0.151333 10.1715 -0.0085109 8.04392 1.9226C6.20824 3.5888 5.83771 6.27551 7.011 8.34788L0.673817 14.1C0.205324 14.5252 0.170135 15.2523 0.595373 15.7208C1.02061 16.1893 1.74771 16.2245 2.2162 15.7992L2.48887 15.5517L3.52698 16.6954C3.82331 17.0219 4.31634 17.0588 4.626 16.7778C4.9357 16.4967 4.94656 16.0024 4.65023 15.6759L4.62945 15.653C4.53067 15.5442 4.53885 15.3753 4.64767 15.2765L4.96187 14.9913C5.07069 14.8925 5.23959 14.9007 5.33836 15.0095L5.35914 15.0324C5.65548 15.3589 6.14851 15.3958 6.45821 15.1147C6.7679 14.8336 6.77877 14.3393 6.48244 14.0129L5.44433 12.8692L8.55334 10.0472C10.5028 11.4151 13.2127 11.3058 15.0484 9.63952ZM9.37436 7.75233C8.28567 6.5529 8.37544 4.69797 9.57488 3.60928C10.7743 2.52058 12.6292 2.61035 13.7179 3.80979C14.8066 5.00922 14.7169 6.86415 13.5174 7.95285C12.318 9.04154 10.4631 8.95177 9.37436 7.75233Z" fill="#000"/>
</svg>
