<svg width="20" height="20" viewBox="0 0 20 20" fill="none" xmlns="http://www.w3.org/2000/svg">
<g>
<path d="M17.3978 2.6021C15.2617 0.465944 11.7861 0.465977 9.64993 2.60213C8.19082 4.06125 7.68401 6.21151 8.3158 8.16236L2.14593 14.3323C2.05253 14.4257 2 14.5521 2 14.6844V17.502C2 17.7773 2.22276 18 2.49805 18H5.3156C5.44788 18 5.57435 17.9475 5.66772 17.8541L6.37199 17.1493C6.47947 17.0418 6.53199 16.8911 6.51449 16.7398L6.42694 15.983L7.47556 15.8842C7.71389 15.8619 7.90212 15.6736 7.9245 15.4353L8.02324 14.3867L8.78004 14.4747C8.92059 14.4937 9.06214 14.4465 9.16865 14.3522C9.27467 14.2573 9.33546 14.1221 9.33546 13.9801V13.0528H10.246C10.3782 13.0528 10.5047 13.0002 10.5981 12.9068L11.8753 11.6465C13.8257 12.2788 15.9387 11.8102 17.3978 10.3501C19.534 8.21393 19.534 4.73826 17.3978 2.6021ZM15.9889 6.12396C15.4062 6.70664 14.4587 6.70664 13.8761 6.12396C13.2934 5.54128 13.2934 4.59382 13.8761 4.01114C14.4587 3.42846 15.4062 3.42846 15.9889 4.01114C16.5716 4.59382 16.5715 5.54128 15.9889 6.12396Z" fill="#000"/>
</g>
</svg>
