<svg width="16" height="16" viewBox="0 0 16 16" fill="none" xmlns="http://www.w3.org/2000/svg">
<g opacity="0.64" clip-path="url(#clip0)">
<path d="M13.4414 14.737L8.85828 14.7369V15.9843L13.4414 15.9844V14.737Z" fill="#196EEE"/>
<path d="M14.7214 13.457V14.0807C14.7214 14.4426 14.427 14.737 14.0652 14.737L13.4414 14.737V15.9844H14.0652C15.1149 15.9844 15.9689 15.1304 15.9689 14.0807V13.457H14.7214Z" fill="#196EEE"/>
<path d="M8.85828 0.0155244L2.5 0V1.24748L8.85828 1.263V0.0155244Z" fill="#196EEE"/>
<path d="M13.4414 0.0155244H8.85828V1.263H13.4414V0.0155244Z" fill="#196EEE"/>
<path d="M1.90507 0.0155244C0.855317 0.0155244 0.00134277 0.869529 0.00134277 1.91925V2.54298H1.24882V1.91925C1.24882 1.55738 1.54323 1.263 1.90507 1.263H2.5288V0.0155244H1.90507Z" fill="#196EEE"/>
<path d="M14.0652 0.0155244H13.4414V1.263L14.0652 1.263C14.427 1.263 14.7214 1.55741 14.7214 1.91925V2.54298H15.9689V1.91925C15.9689 0.869529 15.1149 0.0155244 14.0652 0.0155244Z" fill="#196EEE"/>
<path d="M1.24882 2.54298H0.00134277L0 7.28328H1.24748L1.24882 2.54298Z" fill="#196EEE"/>
<path d="M16 7.28328H14.7525L14.7214 13.457H15.9689L16 7.28328Z" fill="#196EEE"/>
<path d="M15.9689 2.54298H14.7214L14.7525 7.28328H16L15.9689 2.54298Z" fill="#196EEE"/>
<path d="M8.2658 3.22949V4.47694H10.7027L6.58948 8.77449C6.30547 8.60049 5.97172 8.50002 5.61494 8.50002H1.87254C0.840754 8.50002 0.00134277 9.33943 0.00134277 10.3712V14.1136C0.00134277 15.1454 0.840754 15.9848 1.87254 15.9848H5.61494C6.64673 15.9848 7.48614 15.1454 7.48614 14.1136V10.3712C7.48614 10.1543 7.44861 9.94613 7.38045 9.75222L11.5404 5.40585V7.75152H12.7879V3.22949H8.2658ZM6.23866 14.1136C6.23866 14.4575 5.95885 14.7373 5.61494 14.7373H1.87254C1.5286 14.7373 1.24882 14.4575 1.24882 14.1136V10.3712C1.24882 10.0273 1.52863 9.74747 1.87254 9.74747H5.61494C5.95888 9.74747 6.23866 10.0273 6.23866 10.3712V14.1136Z" fill="#196EEE"/>
</g>
<defs>
<clipPath id="clip0">
<rect width="16" height="16" fill="white"/>
</clipPath>
</defs>
</svg>
