<?xml version="1.0" encoding="UTF-8"?>
<svg xmlns="http://www.w3.org/2000/svg" xmlns:xlink="http://www.w3.org/1999/xlink" width="25pt" height="24pt" viewBox="0 0 25 24" version="1.1">
<g id="surface1">
<path style=" stroke:none;fill-rule:nonzero;fill:rgb(0%,0%,0%);fill-opacity:1;" d="M 12.5 0 L 11.988281 0 L 11.988281 4.714844 L 13.011719 4.714844 L 13.011719 0.992188 C 19.105469 1.25 23.980469 6.089844 23.980469 12 C 23.980469 18.078125 18.828125 23.019531 12.5 23.019531 C 6.171875 23.019531 1.019531 18.078125 1.019531 12 C 1.019531 9.511719 1.863281 7.167969 3.457031 5.214844 L 2.652344 4.609375 C 0.917969 6.738281 0 9.292969 0 12 C 0 18.617188 5.609375 24 12.5 24 C 19.394531 24 25 18.617188 25 12 C 25 5.382812 19.394531 0 12.5 0 Z M 12.5 0 "/>
<path style=" stroke:none;fill-rule:nonzero;fill:rgb(0%,0%,0%);fill-opacity:1;" d="M 10.78125 11.695312 C 10.71875 11.894531 10.6875 12.070312 10.6875 12.242188 C 10.6875 13.300781 11.585938 14.164062 12.691406 14.164062 C 13.796875 14.164062 14.695312 13.300781 14.695312 12.242188 C 14.695312 11.179688 13.796875 10.316406 12.691406 10.316406 C 12.484375 10.316406 12.269531 10.351562 12.039062 10.429688 L 11.933594 10.464844 L 7 7.132812 L 10.8125 11.585938 Z M 10.78125 11.695312 "/>
</g>
</svg>
