<svg width="16" height="16" viewBox="0 0 16 16" fill="none" xmlns="http://www.w3.org/2000/svg">
    <path
        d="M8.66663 12.5274V5.08078L11.92 8.33411C12.18 8.59411 12.6066 8.59411 12.8666 8.33411C13.1266 8.07411 13.1266 7.65411 12.8666 7.39411L8.47329 3.00078C8.34874 2.87594 8.17964 2.80579 8.00329 2.80579C7.82695 2.80579 7.65785 2.87594 7.53329 3.00078L3.13329 7.38744C2.87329 7.64744 2.87329 8.06744 3.13329 8.32744C3.39329 8.58744 3.81329 8.58744 4.07329 8.32744L7.33329 5.08078V12.5274C7.33329 12.8941 7.63329 13.1941 7.99996 13.1941C8.36663 13.1941 8.66663 12.8941 8.66663 12.5274Z"
        fill="#12DA35"
    />
</svg>