<svg width="16" height="16" viewBox="0 0 16 16" fill="none" xmlns="http://www.w3.org/2000/svg">
<path fill-rule="evenodd" clip-rule="evenodd" d="M8 1.33337C4.32 1.33337 1.33334 4.32004 1.33334 8.00004C1.33334 11.68 4.32 14.6667 8 14.6667C11.68 14.6667 14.6667 11.68 14.6667 8.00004C14.6667 4.32004 11.68 1.33337 8 1.33337ZM8.00002 8.66667C7.63336 8.66667 7.33336 8.36667 7.33336 8V5.33333C7.33336 4.96667 7.63336 4.66667 8.00002 4.66667C8.36669 4.66667 8.66669 4.96667 8.66669 5.33333V8C8.66669 8.36667 8.36669 8.66667 8.00002 8.66667ZM7.33336 10V11.3333H8.66669V10H7.33336Z" fill="#000"/>
</svg>
