<svg width="26" height="25" viewBox="0 0 26 25" fill="none" xmlns="http://www.w3.org/2000/svg">
<path d="M8.41839 8.35156H8.16761L7.69897 10.6953H8.88702L8.41839 8.35156Z" fill="#000"/>
<path d="M17.8975 13.0391C18.1505 13.7187 18.487 14.2689 18.8594 14.737C19.2318 14.2689 19.6074 13.7187 19.8604 13.0391H17.8975Z" fill="#000"/>
<path d="M21.2422 6.55469H13.9655L15.4828 18.7296C15.5096 19.2276 15.3735 19.6964 15.0485 20.0635L12.479 23H21.2422C22.2115 23 23 22.2115 23 21.2422V8.35156C23 7.38227 22.2115 6.55469 21.2422 6.55469ZM21.2422 13.0391H21.0857C20.7523 14.1087 20.2236 14.9457 19.6741 15.6055C20.1046 15.9991 20.5648 16.3219 21.0224 16.6834C21.2748 16.8854 21.316 17.2539 21.1134 17.5068C20.9118 17.7594 20.5419 17.8003 20.29 17.5978C19.7928 17.2054 19.3261 16.8768 18.8594 16.4486C18.3926 16.8768 17.965 17.2054 17.4678 17.5978C17.2159 17.8003 16.846 17.7594 16.6444 17.5068C16.4418 17.2539 16.483 16.8854 16.7353 16.6834C17.1929 16.3219 17.6142 15.9991 18.0446 15.6055C17.4951 14.9457 17.0054 14.1087 16.6721 13.0391H16.5156C16.1917 13.0391 15.9297 12.777 15.9297 12.4531C15.9297 12.1293 16.1917 11.8672 16.5156 11.8672H18.2734V11.2812C18.2734 10.9574 18.5355 10.6953 18.8594 10.6953C19.1832 10.6953 19.4453 10.9574 19.4453 11.2812V11.8672H21.2422C21.566 11.8672 21.8281 12.1293 21.8281 12.4531C21.8281 12.777 21.566 13.0391 21.2422 13.0391Z" fill="#000"/>
<path d="M12.5377 4.5398C12.4284 3.66203 11.6782 3 10.7936 3H4.75781C3.78852 3 3 3.78852 3 4.75781V17.7266C3 18.6959 3.78852 19.4844 4.75781 19.4844C8.26055 19.4844 10.7804 19.4844 13.9981 19.4844C14.169 19.289 14.3123 19.1666 14.3184 18.9116C14.3198 18.8477 12.5456 4.60324 12.5377 4.5398ZM10.1853 14.1995C9.87461 14.2634 9.55988 14.0617 9.49582 13.74L9.12133 11.8672H7.46465L7.09016 13.74C7.02723 14.057 6.72164 14.2653 6.40066 14.1995C6.08367 14.136 5.87766 13.8276 5.94117 13.51L7.11301 7.65063C7.16793 7.37711 7.40828 7.17969 7.6875 7.17969H8.89844C9.17766 7.17969 9.41801 7.37711 9.47293 7.65063L10.6448 13.51C10.7083 13.8276 10.5023 14.136 10.1853 14.1995Z" fill="#000"/>
<path d="M9.84619 20.6562L9.94674 21.4602C10.0138 21.9986 10.3715 22.5476 10.9599 22.8218C12.0704 21.5993 11.3986 22.3389 12.9271 20.6562H9.84619Z" fill="#000"/>
</svg>
