<svg width="114" height="153" viewBox="0 0 114 153" fill="none" xmlns="http://www.w3.org/2000/svg">
<rect x="0.5" y="0.5" width="113" height="152" rx="11.5" fill="white"/>
<rect x="1" width="113" height="153" rx="10" fill="white"/>
<rect x="1" y="8" width="113" height="145" rx="10" fill="#F5F5F5"/>
<g filter="url(#filter0_d)">
<rect x="16.0715" y="21" width="80.9286" height="22.6907" rx="3" fill="white"/>
</g>
<rect x="21.1296" y="36.5591" width="69.9695" height="2.59322" rx="1.29661" fill="#F6F6F6"/>
<rect x="21.1296" y="31.3728" width="69.9695" height="2.59322" rx="1.29661" fill="#F6F6F6"/>
<rect x="21.1296" y="24.2412" width="56.4814" height="3.88983" rx="1.94492" fill="#F6F6F6"/>
<rect x="16.0715" y="104.631" width="80.9286" height="22.6907" rx="3" fill="white"/>
<rect x="21.1296" y="120.19" width="69.9695" height="2.59322" rx="1.29661" fill="#F6F6F6"/>
<rect x="21.1296" y="115.004" width="69.9695" height="2.59322" rx="1.29661" fill="#F6F6F6"/>
<rect x="21.1296" y="107.873" width="56.4814" height="3.88983" rx="1.94492" fill="#F6F6F6"/>
<rect x="16.0715" y="48.877" width="80.9286" height="52.5127" rx="3" fill="white"/>
<path d="M42.3902 80.078L23.2939 95.7264C22.5673 96.3218 22.9769 97.4999 23.9163 97.4999H88.839C89.7101 97.4999 90.1452 96.4636 89.5553 95.8227L64.884 69.0193C64.5256 68.63 63.926 68.5872 63.516 68.9217L46.5471 82.7657L43.7055 80.1196C43.3392 79.7786 42.7773 79.7608 42.3902 80.078Z" fill="#F6F6F6"/>
<rect x="16" y="134.902" width="39" height="7" rx="3.5" fill="#F42A1F"/>
<rect x="58" y="134.902" width="39" height="7" rx="3.5" fill="#60B44A"/>
<rect x="37.3215" y="147.407" width="40.3571" height="1.29661" rx="0.648305" fill="#24253D"/>
<rect x="0.5" y="0.5" width="113" height="152" rx="11.5" stroke="#60B44A"/>
<defs>
<filter id="filter0_d" x="12.0715" y="19" width="88.9286" height="30.6907" filterUnits="userSpaceOnUse" color-interpolation-filters="sRGB">
<feFlood flood-opacity="0" result="BackgroundImageFix"/>
<feColorMatrix in="SourceAlpha" type="matrix" values="0 0 0 0 0 0 0 0 0 0 0 0 0 0 0 0 0 0 127 0"/>
<feOffset dy="2"/>
<feGaussianBlur stdDeviation="2"/>
<feColorMatrix type="matrix" values="0 0 0 0 0 0 0 0 0 0 0 0 0 0 0 0 0 0 0.14 0"/>
<feBlend mode="normal" in2="BackgroundImageFix" result="effect1_dropShadow"/>
<feBlend mode="normal" in="SourceGraphic" in2="effect1_dropShadow" result="shape"/>
</filter>
</defs>
</svg>
