<svg xmlns="http://www.w3.org/2000/svg" xmlns:xlink="http://www.w3.org/1999/xlink" version="1.1" x="0px" y="0px" viewBox="0 0 24 30" enable-background="new 0 0 24 24" xml:space="preserve"><g><path d="M12,19c-3.2,0-5.8-2.1-6.7-5C5.1,13.4,5,12.7,5,12h1l-2-2l-2,2h1c0,0.7,0.1,1.4,0.2,2c0.9,4,4.5,7,8.8,7   c3.3,0,6.2-1.8,7.7-4.4l-1.5-1.5C17.1,17.4,14.8,19,12,19z"/><path d="M21,12c0-0.7-0.1-1.4-0.2-2c-0.9-4-4.5-7-8.8-7C8.7,3,5.8,4.8,4.3,7.4l1.5,1.5C6.9,6.6,9.3,5,12,5c3.2,0,5.9,2.1,6.7,5   c0.2,0.6,0.3,1.3,0.3,2h-1l2,2l2-2H21z"/><rect x="11" y="7" width="2" height="6"/><rect x="11" y="15" width="2" height="2"/></g><text x="0" y="39" fill="#000000" font-size="5px" font-weight="bold" font-family="'Helvetica Neue', Helvetica, Arial-Unicode, Arial, Sans-serif">Created by Creative Stall</text><text x="0" y="44" fill="#000000" font-size="5px" font-weight="bold" font-family="'Helvetica Neue', Helvetica, Arial-Unicode, Arial, Sans-serif">from the Noun Project</text></svg>