<svg width="36" height="36" viewBox="0 0 36 36" fill="none" xmlns="http://www.w3.org/2000/svg">
<path fill-rule="evenodd" clip-rule="evenodd" d="M0 18C0 8.05888 8.05888 0 18 0C27.9411 0 36 8.05888 36 18C36 27.9411 27.9411 36 18 36C8.05888 36 0 27.9411 0 18Z" fill="#000"/>
<g clip-path="url(#clip0)">
<path d="M9 17.2592C9 20.1725 10.4533 22.7717 12.7258 24.4692V28L16.1308 26.1317C17.0392 26.3825 18.0017 26.5192 18.9992 26.5192C24.5217 26.5192 28.9992 22.3742 28.9992 17.26C29 12.1458 24.5225 8 19 8C13.4775 8 9 12.145 9 17.2592H9ZM17.945 14.6658L20.5533 17.3817L25.4592 14.6658L19.9925 20.4675L17.4467 17.7525L12.4775 20.4683L17.945 14.6658Z" fill="#2ECC71"/>
</g>
<defs>
<clipPath id="clip0">
<rect width="20" height="20" fill="white" transform="translate(9 8)"/>
</clipPath>
</defs>
</svg>
