<svg width="20" height="20" viewBox="0 0 20 20" fill="none" xmlns="http://www.w3.org/2000/svg">
<g id="Icon / Refresh">
<path id="icon/action/autorenew_24px" fill-rule="evenodd" clip-rule="evenodd" d="M9.99998 6.49239V5.00072C7.24165 5.00072 4.99998 7.24239 4.99998 10.0007C4.99998 10.6591 5.12498 11.3007 5.36665 11.8757C5.49165 12.1757 5.39998 12.5174 5.17498 12.7424C4.74998 13.1674 4.03331 13.0174 3.80831 12.4591C3.49998 11.7007 3.33331 10.8674 3.33331 10.0007C3.33331 6.31739 6.31665 3.33406 9.99998 3.33406V1.84239C9.99998 1.46739 10.45 1.28406 10.7083 1.54239L13.0333 3.86739C13.2 4.03406 13.2 4.29239 13.0333 4.45906L10.7083 6.78406C10.45 7.05072 9.99998 6.86739 9.99998 6.49239ZM14.6334 8.12478C14.5084 7.83312 14.6 7.48312 14.825 7.25812C15.25 6.83312 15.9667 6.98312 16.1917 7.54145C16.5 8.29978 16.6667 9.13312 16.6667 9.99978C16.6667 13.6831 13.6834 16.6664 10 16.6664V18.1664C10 18.5331 9.55002 18.7164 9.29168 18.4581L6.96668 16.1331C6.80002 15.9664 6.80002 15.7081 6.96668 15.5414L9.29168 13.2164C9.55002 12.9498 10 13.1331 10 13.5081V14.9998C12.7584 14.9998 15 12.7581 15 9.99978C15 9.34145 14.8667 8.70812 14.6334 8.12478Z" fill="#000"/>
</g>
</svg>
