<svg width="20" height="20" viewBox="0 0 20 20" fill="none" xmlns="http://www.w3.org/2000/svg">
<path d="M16.4453 12.3438H16.2445C15.7552 10.9607 14.43 10 12.9297 10C11.4196 10 10.0875 10.9733 9.60574 12.3701C8.36977 12.5371 7.37586 13.4784 7.12926 14.6875H7.07031C5.7777 14.6875 4.72656 15.7386 4.72656 17.0312C4.72656 18.3239 5.7777 19.375 7.07031 19.375H16.4453C18.3839 19.375 20 17.798 20 15.8594C20 13.9207 18.3839 12.3438 16.4453 12.3438Z" fill="#000"/>
<path d="M15.2734 0.625H0V5.3125H15.2734V0.625ZM3.55469 4.14062H2.38281V2.96875H3.55469V4.14062ZM5.89844 4.14062H4.72656V2.96875H5.89844V4.14062ZM8.24219 4.14062H7.07031V2.96875H8.24219V4.14062Z" fill="#000"/>
<path d="M12.9297 8.82812C13.7716 8.82812 14.5755 9.05621 15.2734 9.46012V6.48438H0V10H9.84277C10.6794 9.26586 11.7648 8.82812 12.9297 8.82812ZM3.55469 8.82812H2.38281V7.65625H3.55469V8.82812ZM5.89844 8.82812H4.72656V7.65625H5.89844V8.82812ZM8.24219 8.82812H7.07031V7.65625H8.24219V8.82812Z" fill="#000"/>
<path d="M6.24918 13.6123C6.72469 12.5395 7.6425 11.7155 8.76629 11.3613C8.80055 11.2951 8.84434 11.236 8.88152 11.1719H0V15.8594H3.75633C4.15059 14.7477 5.0884 13.8911 6.24918 13.6123ZM4.72656 12.3438H5.89844V13.5156H4.72656V12.3438ZM3.55469 13.5156H2.38281V12.3438H3.55469V13.5156Z" fill="#000"/>
</svg>
