<svg width="19" height="17" viewBox="0 0 19 17" fill="none" xmlns="http://www.w3.org/2000/svg">
<path d="M14.621 16.8126C14.496 16.8131 14.3741 16.7741 14.2725 16.7013L9.4999 13.2412L4.72727 16.7013C4.6253 16.7752 4.50246 16.8148 4.3765 16.8144C4.25054 16.8139 4.12799 16.7734 4.02657 16.6987C3.92514 16.624 3.8501 16.519 3.81229 16.3988C3.77448 16.2787 3.77586 16.1496 3.81623 16.0303L5.67764 10.517L0.85342 7.20867C0.748924 7.13709 0.670057 7.03397 0.628341 6.91438C0.586625 6.79478 0.584248 6.66498 0.621555 6.54394C0.658863 6.4229 0.7339 6.31696 0.835705 6.2416C0.937509 6.16624 1.06074 6.12541 1.1874 6.12508H7.13901L8.9351 0.597637C8.97379 0.478301 9.04929 0.374288 9.15076 0.300517C9.25223 0.226747 9.37445 0.187012 9.4999 0.187012C9.62536 0.187012 9.74758 0.226747 9.84905 0.300517C9.95052 0.374288 10.026 0.478301 10.0647 0.597637L11.8608 6.12693H17.8124C17.9392 6.12687 18.0627 6.16742 18.1648 6.24263C18.2669 6.31784 18.3423 6.42378 18.3798 6.54491C18.4174 6.66605 18.4151 6.79602 18.3735 6.91579C18.3318 7.03557 18.2529 7.13886 18.1482 7.21053L13.3222 10.517L15.1825 16.0288C15.2126 16.1181 15.2211 16.2132 15.2072 16.3064C15.1933 16.3995 15.1575 16.488 15.1026 16.5646C15.0478 16.6412 14.9755 16.7036 14.8917 16.7467C14.808 16.7898 14.7152 16.8124 14.621 16.8126Z" fill="white"/>
</svg>
